<svg width="225" height="225" viewBox="0 0 225 225" xmlns="http://www.w3.org/2000/svg" fill="none">
  <defs>
    <path id="heartPath" d="M12 21.35l-1.45-1.32C5.4 15.36 2 12.28 2 8.5 2 5.42 4.42 3 7.5 3c1.74 0 3.41.81 4.5 2.09C13.09 3.81 14.76 3 16.5 3 19.58 3 22 5.42 22 8.5c0 3.78-3.4 6.86-8.55 11.54L12 21.35z" />
  </defs>
  <rect width="225" height="225" fill="transparent" />
  <!-- Group of hearts -->
  <g>
    <use xlink:href="#heartPath" fill="red" x="80" y="150" width="15" height="15">
      <animateTransform attributeName="transform" type="translate" from="0 0" to="0 -100" dur="1.5s" repeatCount="indefinite" />
      <animate attributeName="opacity" from="1" to="0" dur="1.5s" repeatCount="indefinite" />
    </use>
    <use xlink:href="#heartPath" fill="pink" x="120" y="150" width="12" height="12">
      <animateTransform attributeName="transform" type="translate" from="0 0" to="0 -120" dur="1.2s" repeatCount="indefinite" />
      <animate attributeName="opacity" from="1" to="0" dur="1.2s" repeatCount="indefinite" />
    </use>
    <use xlink:href="#heartPath" fill="orange" x="100" y="150" width="10" height="10">
      <animateTransform attributeName="transform" type="translate" from="0 0" to="0 -90" dur="1.3s" repeatCount="indefinite" />
      <animate attributeName="opacity" from="1" to="0" dur="1.3s" repeatCount="indefinite" />
    </use>
    <use xlink:href="#heartPath" fill="red" x="140" y="160" width="8" height="8">
      <animateTransform attributeName="transform" type="translate" from="0 0" to="0 -110" dur="1.6s" repeatCount="indefinite" />
      <animate attributeName="opacity" from="1" to="0" dur="1.6s" repeatCount="indefinite" />
    </use>
    <use xlink:href="#heartPath" fill="pink" x="60" y="160" width="10" height="10">
      <animateTransform attributeName="transform" type="translate" from="0 0" to="0 -120" dur="1.7s" repeatCount="indefinite" />
      <animate attributeName="opacity" from="1" to="0" dur="1.7s" repeatCount="indefinite" />
    </use>
  </g>
</svg>
